<?xml version="1.0" standalone="no"?>
<!DOCTYPE svg PUBLIC "-//W3C//DTD SVG 20010904//EN"
 "http://www.w3.org/TR/2001/REC-SVG-20010904/DTD/svg10.dtd">
<svg version="1.0" xmlns="http://www.w3.org/2000/svg"
 width="1025.000000pt" height="1025.000000pt" viewBox="0 0 1025.000000 1025.000000"
 preserveAspectRatio="xMidYMid meet">
<metadata>
Created by potrace 1.14, written by Peter Selinger 2001-2017
</metadata>
<g transform="translate(0.000000,1025.000000) scale(0.100000,-0.100000)"
fill="#000000" stroke="none">
<path d="M6412 8975 c-18 -8 -35 -20 -37 -27 -3 -8 -15 -15 -27 -15 -37 -3
-70 -46 -70 -90 1 -39 24 -111 48 -146 10 -15 7 -23 -17 -50 -16 -17 -34 -47
-40 -66 -16 -46 -6 -129 21 -174 22 -37 122 -117 146 -117 8 0 11 -8 8 -22
-37 -170 -46 -325 -24 -394 10 -29 17 -59 24 -103 2 -8 -4 -39 -11 -70 -8 -31
-16 -67 -19 -81 -3 -14 -7 -33 -10 -43 -16 -52 -12 -195 7 -267 22 -85 116
-377 128 -400 4 -8 16 -48 27 -87 17 -68 17 -76 2 -130 -21 -75 -91 -270 -110
-308 -18 -35 -11 -60 25 -93 l25 -24 -61 -122 c-144 -284 -222 -490 -243 -636
-2 -19 -6 -48 -9 -65 -3 -16 -7 -70 -11 -120 -4 -66 -13 -110 -35 -165 -16
-41 -33 -77 -38 -80 -17 -12 -88 -118 -103 -155 -23 -55 -32 -91 -43 -180 -19
-142 -48 -277 -74 -340 -52 -127 -115 -236 -152 -262 -31 -23 -63 -85 -61
-120 2 -28 -1 -33 -20 -34 -225 -7 -227 -6 -237 21 -17 42 -41 161 -35 171 3
5 12 9 20 9 8 0 14 4 14 8 0 5 11 14 24 21 13 8 36 36 51 64 24 43 28 62 29
136 1 112 -17 147 -135 271 -102 107 -108 116 -150 238 -17 48 -40 107 -51
132 -26 55 -26 57 0 155 6 22 13 60 15 85 3 34 18 67 60 130 59 91 94 163 122
250 28 86 69 160 119 215 46 50 46 50 64 29 51 -60 163 -120 245 -130 29 -4
59 -8 67 -9 21 -3 130 23 160 37 136 66 264 227 295 374 26 119 34 221 21 289
-3 17 -8 45 -11 63 -20 118 -81 231 -174 322 -102 99 -165 125 -301 125 -86 0
-101 -3 -164 -33 -129 -61 -249 -214 -287 -367 -7 -27 -17 -55 -21 -61 -4 -6
-43 -12 -86 -14 -42 -1 -113 -4 -157 -6 -44 -2 -136 -6 -205 -8 -69 -3 -186
-8 -260 -12 -179 -8 -325 -10 -327 -4 -1 3 -14 39 -28 80 -81 226 -248 360
-450 362 -130 1 -226 -40 -326 -141 -215 -216 -219 -590 -9 -815 147 -157 362
-195 539 -95 29 17 54 29 55 27 18 -26 74 -163 102 -250 20 -62 43 -123 51
-135 8 -12 43 -40 77 -63 l64 -41 -20 -62 c-10 -34 -21 -85 -24 -113 -5 -46
-2 -62 31 -131 21 -43 82 -152 136 -242 55 -90 99 -165 99 -166 0 -1 -28 4
-62 12 -102 21 -166 27 -303 27 -239 1 -392 -29 -439 -85 -20 -24 -23 -35 -16
-53 5 -13 7 -26 4 -28 -3 -4 87 -117 131 -164 5 -6 39 -43 75 -83 36 -39 95
-104 132 -143 38 -39 68 -78 68 -86 0 -13 -25 -39 -111 -118 -9 -8 -36 -14
-62 -14 -46 0 -47 1 -47 30 0 40 -22 83 -55 107 -24 17 -25 22 -15 45 13 27 0
68 -20 68 -6 0 -10 6 -10 13 0 6 -9 23 -20 37 -16 21 -18 35 -13 96 5 63 4 72
-13 78 -26 10 -27 9 -30 -10 -4 -28 -27 -43 -69 -45 -25 -2 -50 4 -67 15 -26
17 -27 17 -38 -4 -9 -17 -14 -19 -26 -9 -19 15 -18 26 6 56 11 14 20 37 20 50
0 14 14 42 30 63 32 41 39 63 16 54 -8 -3 -19 3 -25 15 -12 22 -41 19 -41 -5
0 -16 -39 -44 -62 -44 -14 0 -16 6 -12 28 4 22 1 29 -18 37 -15 6 -23 18 -22
33 0 12 -2 22 -6 22 -7 0 -25 -34 -33 -60 -3 -11 -15 -4 -46 27 -39 38 -42 46
-35 75 4 18 7 46 8 62 1 23 6 30 23 31 13 1 26 4 29 8 9 9 -6 47 -20 47 -6 0
-19 13 -29 29 -12 21 -22 28 -37 24 -17 -5 -20 0 -20 27 0 34 -33 90 -53 90
-7 0 -23 -18 -37 -40 -35 -56 -62 -73 -86 -55 -27 21 -30 19 -48 -25 -12 -30
-13 -46 -6 -60 6 -11 14 -20 18 -20 4 0 24 -16 45 -35 37 -33 38 -35 27 -74
-9 -33 -19 -45 -50 -61 -22 -11 -50 -20 -63 -20 -12 0 -28 -5 -34 -11 -8 -8
-16 -6 -29 10 -10 11 -24 21 -32 21 -7 0 -23 11 -35 24 -12 13 -31 25 -42 27
-11 3 -21 10 -21 17 -1 6 -2 16 -3 20 0 5 -12 14 -26 20 -13 6 -27 23 -31 37
-4 16 -12 25 -22 23 -25 -5 -24 -22 4 -64 21 -31 27 -51 28 -99 1 -46 4 -60
16 -60 30 0 51 -82 35 -138 -6 -22 -3 -33 14 -51 20 -22 21 -25 6 -40 -19 -19
-20 -19 -47 -5 -32 17 -47 -6 -18 -29 l23 -19 -43 -29 c-49 -33 -53 -46 -13
-51 16 -2 35 -7 43 -10 8 -4 33 -7 55 -8 22 0 47 -3 55 -5 10 -4 14 1 12 15
-2 11 -6 34 -9 51 -4 25 0 32 20 41 20 9 24 17 20 34 -5 20 -3 21 22 17 16 -3
37 -1 47 5 12 8 21 8 28 1 17 -17 -5 -62 -35 -70 -29 -7 -30 -10 -9 -32 15
-14 14 -17 -10 -35 -30 -22 -33 -35 -10 -52 27 -19 9 -53 -36 -65 -22 -6 -42
-15 -45 -20 -13 -20 -23 -9 -28 31 -6 47 -19 59 -61 59 -26 0 -28 -2 -23 -29
8 -36 4 -40 -36 -32 -28 6 -33 11 -37 46 -6 43 -20 50 -112 59 -35 3 -46 1
-42 -8 3 -7 -1 -18 -9 -24 -11 -10 -20 -8 -41 9 -14 11 -26 27 -26 35 0 8 -4
14 -10 14 -12 0 -31 -35 -23 -44 10 -10 -27 -7 -48 4 -23 13 -25 46 -3 58 9 5
17 27 20 56 4 40 1 50 -18 66 -33 28 -68 26 -68 -3 0 -13 -5 -28 -12 -35 -6
-6 -11 -27 -10 -46 2 -61 -50 -72 -92 -19 -14 19 -21 22 -27 11 -4 -7 -5 -24
-2 -37 3 -14 2 -22 -4 -18 -5 3 -15 2 -23 -3 -22 -14 -62 27 -50 50 8 14 6 18
-8 16 -10 -2 -18 -13 -20 -29 -3 -22 -9 -26 -40 -29 -32 -3 -37 -7 -40 -30 -2
-15 4 -38 14 -53 19 -29 17 -34 -15 -40 -29 -5 -81 -62 -75 -80 3 -8 14 -17
25 -20 30 -10 23 -22 -36 -61 -48 -32 -59 -36 -80 -26 -13 6 -54 12 -90 13
-36 1 -68 6 -71 10 -11 18 -90 10 -108 -10 -14 -16 -23 -18 -43 -10 -29 11
-77 12 -87 2 -4 -5 -80 -8 -169 -9 -157 0 -227 -7 -275 -25 -14 -6 -31 -5 -43
1 -10 6 -19 8 -19 5 0 -3 -11 2 -25 11 -24 16 -26 15 -58 -13 l-33 -29 -194
-3 c-107 -1 -303 -4 -435 -6 -132 -2 -252 -4 -267 -4 l-28 -1 0 -175 c0 -160
2 -175 18 -176 36 -1 231 1 687 6 259 2 706 7 995 10 289 3 743 8 1010 10 267
3 700 7 964 10 263 2 480 6 482 8 2 1 28 0 59 -3 30 -3 55 -4 55 -1 0 4 147 7
328 7 180 1 624 4 987 8 363 4 856 9 1095 11 239 3 656 7 925 10 270 3 731 8
1025 10 294 3 695 7 890 10 195 2 439 4 543 5 l187 1 0 185 0 184 -479 -5
-478 -6 -13 30 c-6 16 -38 60 -71 98 -32 37 -59 72 -59 76 0 10 45 4 125 -18
143 -40 276 18 331 143 37 83 14 239 -51 342 -26 41 -89 199 -100 250 -5 19
-9 80 -10 135 -3 132 -12 204 -36 294 -42 158 -132 311 -252 433 l-72 73 17
70 c9 39 17 72 17 74 1 2 9 -3 19 -11 60 -54 172 -82 221 -56 78 42 85 140 15
191 l-25 19 3 -29 c3 -24 0 -28 -21 -25 -14 1 -31 8 -38 14 -16 13 -43 62 -48
87 -13 68 -31 109 -61 139 -35 35 -56 38 -129 19 -11 -3 -25 -6 -30 -6 -6 -1
-22 -12 -37 -26 l-28 -25 -37 23 c-110 69 -190 58 -356 -49 -97 -64 -143 -114
-131 -144 3 -8 7 -19 8 -25 2 -5 5 -17 8 -25 3 -8 20 -60 37 -114 18 -54 43
-116 57 -137 29 -47 30 -49 2 -49 -13 0 -45 -7 -73 -15 -27 -9 -61 -18 -75
-21 -37 -8 -55 -12 -55 -14 0 -1 -9 -3 -20 -6 -11 -2 -47 -10 -80 -17 -58 -14
-107 -15 -210 -3 -27 3 -68 6 -90 7 -48 2 -338 -10 -380 -16 -16 -2 -51 -7
-77 -10 -27 -4 -48 -3 -49 1 -2 23 -112 406 -133 464 -9 25 -18 50 -19 55 -1
6 25 10 63 10 49 0 73 5 100 22 55 34 403 394 424 438 32 66 26 97 -30 162
-28 32 -104 128 -171 213 -187 240 -259 303 -352 315 -26 3 -61 18 -87 37
l-44 31 35 39 c32 34 35 44 35 98 0 33 0 62 0 65 0 3 9 25 20 51 11 25 20 56
20 69 0 26 -69 117 -129 173 -48 43 -133 92 -161 92 -34 0 -102 -21 -131 -41
-28 -20 -75 -109 -111 -213 l-22 -64 27 -59 c20 -42 27 -67 23 -90 -10 -56
-25 -83 -44 -83 -27 0 -74 114 -79 193 -2 34 -5 73 -7 87 -2 14 4 48 14 75 9
28 15 55 15 60 -3 21 -18 111 -22 130 -2 11 -10 52 -18 90 -8 39 -18 84 -23
100 -17 61 -10 81 42 117 66 44 96 102 92 178 -3 62 -24 109 -62 139 -25 20
-26 21 -12 68 30 102 9 195 -48 209 -14 4 -36 17 -48 29 -18 18 -34 23 -87 23
-36 1 -78 -5 -97 -13z m217 -137 c10 -28 8 -52 -8 -100 -11 -34 -14 -36 -36
-26 -18 8 -22 17 -19 37 11 69 16 96 20 103 10 16 35 7 43 -14z m-227 -44 c24
-42 30 -81 12 -88 -16 -6 -30 21 -39 76 -3 17 -9 36 -12 41 -3 5 0 8 8 5 8 -3
21 -18 31 -34z m930 -1771 c5 -12 147 -135 213 -185 33 -25 70 -63 82 -85 l23
-40 -26 -24 c-24 -22 -120 -146 -152 -194 -7 -11 -25 -39 -40 -63 -15 -23 -29
-41 -32 -40 -3 2 -44 18 -92 36 -83 33 -86 35 -93 70 -3 21 -16 69 -27 107
-20 67 -23 92 -15 125 8 37 48 132 87 205 52 99 49 95 60 95 4 0 10 -3 12 -7z
m-1938 -703 c4 -36 12 -84 17 -106 l11 -42 -81 -101 c-44 -55 -95 -114 -114
-131 -19 -16 -55 -67 -81 -112 -25 -46 -65 -105 -87 -131 l-41 -48 -44 46
c-24 25 -44 48 -44 52 0 3 21 26 46 50 58 57 73 93 79 199 6 108 -8 165 -52
210 -79 82 -249 114 -359 68 -22 -9 -41 -16 -44 -16 -3 0 -9 -3 -15 -8 -5 -4
-26 -13 -46 -19 -31 -10 -38 -19 -56 -70 -13 -35 -18 -63 -13 -71 5 -8 3 -25
-4 -39 -8 -14 -12 -35 -10 -46 5 -29 -18 -153 -25 -135 -6 16 -42 71 -51 80
-3 3 -24 33 -47 67 l-42 61 25 63 c29 70 32 82 41 152 5 39 9 47 27 47 31 1
167 8 281 15 55 3 145 8 200 11 55 2 127 6 160 9 33 2 123 7 200 10 77 4 142
9 144 11 11 10 19 -16 25 -76z m1511 -464 c7 -11 25 -61 39 -111 32 -114 72
-213 140 -340 74 -140 107 -186 201 -279 82 -80 83 -82 89 -141 16 -150 34
-197 132 -341 l83 -122 -67 -11 c-122 -21 -154 -20 -232 5 -41 13 -88 26 -105
29 -53 8 -71 13 -145 35 -70 21 -74 21 -124 5 -74 -24 -96 -41 -96 -73 0 -33
25 -59 95 -98 47 -25 119 -77 209 -148 36 -29 43 -31 125 -31 72 0 93 4 126
23 44 27 94 30 182 11 32 -6 77 -13 100 -13 23 -1 45 -5 48 -8 8 -8 -34 -117
-61 -158 -22 -31 -22 -36 -9 -57 15 -23 15 -23 -22 -23 -211 -2 -995 -11
-1241 -14 -284 -4 -313 -3 -321 12 -5 9 -9 19 -9 22 0 3 -5 25 -12 50 -23 84
-15 123 47 229 31 53 80 133 110 179 71 111 96 163 123 252 12 41 30 86 40
100 10 14 31 53 48 87 16 34 39 74 49 90 39 54 85 149 139 286 30 75 94 217
143 315 48 97 94 195 101 217 7 22 14 43 16 47 7 12 45 -5 59 -26z m685 -371
c14 -2 57 -8 95 -13 39 -6 162 -8 274 -6 186 4 214 2 325 -20 66 -14 139 -27
161 -31 22 -3 68 -10 101 -16 l62 -11 4 -41 c3 -23 15 -65 27 -93 20 -45 29
-55 70 -72 92 -38 164 -124 211 -252 23 -61 25 -78 8 -73 -11 4 -308 12 -478
14 -189 2 -233 -11 -269 -80 -16 -29 -7 -81 19 -109 l20 -22 -47 -24 c-52 -25
-88 -33 -198 -42 -38 -3 -80 -6 -93 -7 -21 -2 -27 10 -67 129 -58 173 -92 244
-167 356 -35 51 -68 104 -75 118 -14 30 -45 136 -48 165 -9 76 -17 130 -21
137 -3 5 9 6 28 2 18 -3 44 -8 58 -9z m790 -1140 c25 -5 54 -9 65 -11 11 -1
49 -9 85 -18 36 -8 77 -17 93 -20 26 -4 184 -108 199 -131 5 -6 -11 -12 -42
-16 -68 -9 -140 -48 -169 -92 l-24 -37 -146 -1 c-80 0 -170 -2 -200 -3 -54 -1
-54 -1 -107 57 -49 55 -53 63 -52 108 0 54 -12 75 -52 91 -23 10 -20 12 40 28
36 10 83 23 105 30 47 15 124 27 145 24 8 -1 35 -5 60 -9z m-3878 -61 c134
-26 190 -36 228 -40 25 -2 46 -9 48 -13 16 -47 75 -109 146 -155 45 -29 90
-63 100 -74 l19 -22 -139 -1 c-76 0 -150 -2 -163 -3 -17 -2 -30 7 -51 35 -15
21 -52 66 -83 101 -127 144 -147 169 -147 179 0 6 4 7 10 4 5 -3 20 -8 32 -11z"/>
<path d="M4162 7604 c-15 -11 -13 -13 17 -21 19 -5 37 -15 41 -23 3 -8 20 -42
37 -75 34 -66 63 -90 32 -26 -10 22 -19 53 -20 68 -2 60 -13 77 -52 84 -23 4
-44 1 -55 -7z"/>
<path d="M4353 7353 c-18 -7 -16 -33 2 -33 8 0 15 -4 15 -9 0 -13 28 -22 35
-11 8 13 -38 59 -52 53z"/>
<path d="M857 5412 c-20 -22 -22 -81 -4 -104 17 -23 87 -35 87 -15 0 8 7 20
15 27 9 8 13 20 10 29 -4 9 -9 25 -11 36 -8 43 -68 60 -97 27z"/>
<path d="M3145 5315 c-3 -8 -7 -22 -10 -30 -7 -22 -67 -56 -94 -53 -34 4 -38
-19 -7 -33 14 -7 26 -16 26 -20 0 -5 18 -21 41 -36 38 -25 40 -29 35 -65 -5
-36 -3 -40 29 -55 34 -16 35 -16 58 9 13 14 28 27 33 29 5 2 17 18 26 35 16
29 16 36 2 83 -9 32 -20 51 -30 51 -18 0 -63 46 -75 78 -10 25 -27 29 -34 7z"/>
<path d="M3757 5136 c-7 -17 11 -36 34 -36 11 0 16 6 14 18 -2 9 -4 20 -4 25
-2 13 -39 7 -44 -7z"/>
<path d="M965 5129 c-6 -9 2 -79 8 -79 1 0 17 -4 34 -9 68 -20 101 58 38 87
-32 15 -72 15 -80 1z"/>
<path d="M1915 5109 c-30 -15 -43 -40 -46 -91 -2 -34 2 -50 17 -67 20 -20 23
-20 56 -7 35 15 78 71 78 102 0 8 -10 28 -22 44 -22 31 -47 36 -83 19z"/>
<path d="M3535 5100 c-34 -13 -68 -62 -72 -102 -4 -32 -2 -39 18 -46 32 -12
66 -3 72 20 5 19 6 19 36 2 25 -15 32 -15 45 -5 9 8 16 22 16 32 0 11 4 19 9
19 15 0 42 31 36 40 -3 5 -19 7 -35 4 -22 -5 -33 -1 -51 20 -23 27 -40 31 -74
16z"/>
<path d="M2066 5039 c-39 -52 -45 -65 -40 -95 6 -36 1 -39 -52 -35 -15 2 -23
-5 -27 -21 -8 -29 17 -68 43 -68 14 0 20 -7 20 -22 1 -13 10 -34 20 -47 24
-29 62 -23 86 14 13 20 20 22 40 15 13 -5 24 -6 24 -2 1 19 20 -26 20 -47 0
-20 3 -22 28 -16 15 4 35 8 45 9 9 0 17 5 16 10 0 5 6 13 15 18 9 5 16 18 16
30 0 11 12 43 27 70 30 55 27 71 -23 97 -16 9 -43 26 -59 37 -17 12 -40 25
-52 28 -13 4 -23 14 -23 21 0 13 -59 65 -73 65 -3 0 -26 -27 -51 -61z"/>
<path d="M2246 5083 c-7 -18 22 -56 35 -47 16 9 10 39 -10 51 -16 10 -20 9
-25 -4z"/>
<path d="M1341 4974 c-28 -20 -60 -89 -54 -115 12 -45 87 -46 135 -2 31 30 31
60 -1 103 -24 34 -46 37 -80 14z"/>
<path d="M2472 4853 c-9 -15 10 -63 40 -100 5 -7 7 -17 4 -22 -4 -6 3 -15 14
-21 11 -6 18 -14 16 -18 -11 -18 67 -151 109 -185 6 -5 3 -7 -7 -3 -36 11 -17
-15 22 -30 25 -10 53 -34 76 -64 38 -50 84 -72 84 -41 0 9 6 25 13 36 7 11 19
37 26 58 12 36 11 43 -11 85 -13 26 -24 56 -23 67 0 11 -7 23 -15 26 -18 8
-40 -8 -40 -27 0 -7 -9 -22 -21 -33 -17 -16 -26 -17 -50 -9 -15 5 -31 17 -34
26 -2 10 -26 40 -52 67 -52 55 -74 87 -103 151 -22 50 -36 60 -48 37z"/>
<path d="M3507 4809 c-20 -17 -37 -37 -37 -45 0 -17 39 -34 66 -29 11 2 22 4
25 4 4 1 14 13 24 27 13 21 15 31 6 50 -14 32 -39 30 -84 -7z"/>
<path d="M3122 4808 c-6 -7 -8 -25 -5 -40 4 -20 13 -29 35 -33 44 -10 56 7 35
50 -17 36 -45 46 -65 23z"/>
<path d="M3010 4755 c0 -18 24 -35 36 -27 6 4 9 14 5 22 -7 18 -41 23 -41 5z"/>
<path d="M3073 4714 c-7 -18 17 -38 30 -25 9 9 -1 41 -14 41 -5 0 -12 -7 -16
-16z"/>
<path d="M3629 4697 c-14 -31 -9 -40 15 -31 18 7 20 22 7 43 -8 12 -12 10 -22
-12z"/>
<path d="M1658 4682 c-33 -3 -38 -7 -38 -28 0 -32 38 -51 69 -35 17 10 22 9
27 -4 4 -8 1 -21 -4 -28 -6 -7 -10 -21 -8 -32 9 -60 68 14 64 80 -3 37 -5 40
-38 45 -19 3 -52 4 -72 2z"/>
<path d="M1398 4613 c-30 -15 -33 -27 -18 -69 21 -55 62 -67 116 -33 30 18 32
22 22 47 -15 35 -54 72 -76 71 -9 -1 -29 -8 -44 -16z"/>
<path d="M1637 4475 c-45 -33 -11 -91 54 -92 24 -1 45 -9 58 -22 12 -12 26
-21 32 -21 6 0 23 -12 37 -28 15 -15 38 -35 52 -44 32 -20 23 -30 -18 -19 -45
13 -43 -11 4 -38 28 -17 35 -26 31 -42 -4 -16 1 -23 24 -31 48 -16 53 -40 19
-79 -17 -18 -26 -37 -22 -41 11 -11 84 30 77 42 -3 5 -1 11 5 15 7 4 7 12 0
25 -13 24 -3 48 23 56 12 4 22 5 23 3 0 -2 8 2 17 9 13 11 7 21 -49 77 -35 36
-66 65 -69 65 -3 0 -24 14 -47 30 -22 17 -47 30 -55 30 -7 0 -13 6 -13 13 0 8
-19 32 -43 54 -33 31 -53 41 -85 44 -22 3 -47 0 -55 -6z"/>
<path d="M1929 4404 c-14 -17 -5 -28 28 -38 17 -5 21 -3 18 11 -2 10 -4 21 -4
24 -2 15 -30 17 -42 3z"/>
<path d="M2043 4361 c-29 -14 -52 -32 -53 -38 0 -12 17 -36 48 -69 20 -21 41
-17 37 6 -7 34 5 49 51 69 46 21 52 29 32 49 -18 18 -57 13 -115 -17z"/>
<path d="M1303 4230 c-24 -25 -43 -48 -43 -52 0 -4 15 -24 34 -44 31 -34 39
-38 80 -35 40 2 46 -1 46 -18 0 -34 64 -57 110 -38 65 25 68 29 66 61 -2 17 1
41 5 53 7 19 4 25 -19 37 -19 9 -34 11 -51 4 -25 -9 -59 -3 -47 9 8 8 -23 43
-39 43 -7 0 -18 7 -25 15 -23 28 -71 13 -117 -35z"/>
<path d="M4012 4163 c-7 -11 -4 -26 10 -49 18 -30 21 -32 49 -22 36 12 36 18
3 57 -29 35 -48 39 -62 14z"/>
<path d="M1793 4123 c-21 -14 -21 -17 -7 -38 22 -33 77 -13 67 24 -6 25 -34
31 -60 14z"/>
<path d="M1188 4096 c-55 -14 -60 -58 -7 -68 32 -6 56 10 64 44 8 31 -7 38
-57 24z"/>
<path d="M5228 3579 c-9 -5 -41 -10 -72 -13 -35 -2 -64 -10 -76 -21 -17 -16
-49 -18 -292 -21 -650 -6 -1361 -15 -1713 -20 -209 -2 -573 -7 -810 -9 -236
-2 -639 -7 -895 -10 -922 -12 -1097 -14 -1232 -14 l-138 -1 0 -163 0 -163 193
3 c105 1 496 5 867 8 371 3 847 8 1058 10 382 5 387 4 384 -26 -1 -4 21 -30
49 -58 74 -76 68 -86 -61 -87 -137 -2 -1867 -16 -2215 -18 l-270 -2 -3 -79 -3
-80 708 -1 c389 -1 722 -2 738 -2 17 0 91 2 165 4 74 2 358 6 630 8 462 3 499
2 550 -15 30 -10 96 -21 145 -24 291 -17 290 -17 315 -40 11 -10 18 -20 16
-23 -3 -2 -546 -6 -1208 -9 -1966 -7 -2051 -8 -2055 -19 -2 -6 128 -9 394 -8
223 1 403 -3 409 -8 11 -8 207 -22 274 -20 46 2 54 2 155 -1 55 -2 113 -9 130
-16 40 -16 74 -6 86 27 9 25 11 25 21 9 14 -25 46 -35 84 -27 18 4 38 4 45 -1
10 -6 11 -9 2 -9 -7 0 -13 -7 -13 -15 0 -18 41 -20 71 -5 21 12 55 -1 75 -28
7 -10 19 -13 37 -8 17 4 27 2 27 -5 0 -6 -9 -13 -20 -16 -16 -4 -19 -11 -14
-27 11 -33 24 -37 109 -31 82 6 125 20 125 40 0 6 20 30 44 52 35 33 55 42 98
49 83 12 112 11 130 -4 10 -8 25 -11 35 -8 12 5 27 -5 52 -34 32 -35 47 -43
130 -65 52 -13 119 -27 150 -31 l56 -6 50 47 c72 68 105 90 152 105 44 14 64
7 86 -28 7 -11 13 -10 28 4 17 15 22 16 45 4 17 -10 27 -11 32 -3 4 5 21 18
39 27 41 20 232 23 318 4 54 -12 62 -17 78 -51 10 -20 32 -46 47 -57 27 -19
29 -25 24 -64 -8 -53 8 -86 36 -79 11 3 20 12 20 20 0 30 50 56 109 58 78 1
86 -2 117 -46 28 -41 54 -51 55 -21 0 9 2 44 5 77 2 33 5 81 7 107 3 54 7 60
45 65 15 2 37 4 48 6 12 1 31 10 41 20 18 15 47 17 300 17 l281 0 51 -26 c29
-14 73 -27 99 -30 125 -12 146 -12 180 0 39 14 51 12 92 -16 14 -9 44 -19 68
-22 29 -3 67 -21 115 -53 40 -26 72 -46 72 -44 0 3 10 -1 21 -7 18 -9 25 -8
39 8 13 14 22 17 40 10 31 -12 63 -5 89 18 12 11 33 18 49 17 19 -1 34 6 47
22 10 13 28 25 39 26 13 1 21 8 21 19 0 10 6 18 14 18 8 0 21 8 28 18 8 11 25
18 48 17 28 0 36 -4 38 -21 3 -19 8 -21 63 -17 l59 5 15 -36 c19 -44 25 -48
66 -36 32 9 42 5 51 -23 2 -4 21 2 43 13 49 25 65 25 65 1 0 -32 17 -33 74 -5
48 24 56 25 81 13 27 -14 55 -71 55 -115 0 -50 37 -37 39 14 2 74 12 92 48 92
15 0 43 -8 64 -17 42 -20 47 -33 54 -161 3 -55 13 -93 41 -160 40 -93 81 -162
96 -162 5 0 1 12 -9 28 -61 90 -118 303 -113 427 1 48 3 50 28 34 16 -10 23
-10 36 4 9 9 32 19 51 23 35 6 42 4 145 -55 30 -17 58 -31 61 -31 3 0 15 18
28 40 27 48 43 58 101 60 78 3 93 1 87 -13 -10 -26 16 -112 44 -148 33 -42 89
-71 171 -89 50 -11 58 -17 63 -40 19 -84 97 -154 188 -166 137 -19 215 71 225
259 l5 97 52 0 c124 0 209 -65 284 -216 27 -55 54 -135 65 -194 20 -107 26
-143 32 -200 3 -36 8 -78 10 -95 2 -16 6 -138 8 -270 3 -132 5 -243 5 -248 1
-4 83 -6 183 -5 l183 3 -1 35 c-1 19 -4 148 -8 285 -3 138 -8 350 -12 473 -3
122 -2 222 3 223 4 0 18 2 30 3 12 1 27 0 32 -3 5 -4 12 -107 15 -236 3 -127
9 -243 13 -260 12 -45 43 -92 70 -104 47 -21 114 -10 152 26 56 54 61 102 46
453 -9 206 -8 190 -4 318 1 50 7 92 12 92 17 0 132 58 157 79 40 33 90 85 90
94 0 4 225 7 500 7 l500 0 0 35 0 35 -57 1 c-32 0 -80 1 -108 1 -31 1 -67 -6
-95 -18 -32 -15 -68 -21 -128 -22 -49 0 -80 3 -77 9 4 5 12 9 20 9 25 0 22 25
-4 42 -59 40 -151 10 -151 -47 0 -14 -1 -25 -3 -25 -2 0 -26 6 -53 14 -100 29
-248 47 -276 34 -22 -10 -34 8 -18 27 7 8 9 15 4 15 -4 0 -3 5 4 12 9 9 130
12 469 14 252 1 461 2 466 3 4 0 7 44 7 96 0 105 0 105 -66 86 -19 -5 -37 -5
-48 1 -17 9 -66 17 -156 23 -25 2 -67 9 -95 15 -104 22 -291 28 -324 11 -12
-7 -22 -6 -28 0 -7 7 -18 8 -29 2 -22 -11 -49 -10 -119 2 -27 4 -57 9 -65 10
-8 1 -46 10 -85 19 -87 20 -159 25 -239 14 -33 -4 -78 -10 -99 -13 -21 -2 -41
-6 -45 -9 -4 -2 -32 -7 -62 -11 -30 -4 -57 -8 -60 -10 -28 -16 -238 -27 -273
-13 -19 7 -31 7 -40 -1 -20 -16 -137 -2 -164 19 -17 13 -34 16 -68 12 -25 -2
-65 1 -89 8 -33 9 -57 9 -97 1 -30 -6 -79 -14 -109 -17 -30 -4 -66 -11 -79
-16 -13 -4 -60 -11 -105 -13 -44 -3 -115 -8 -156 -11 -91 -6 -134 -5 -180 5
-25 5 -51 2 -89 -11 -35 -13 -75 -18 -120 -17 -36 2 -76 -1 -88 -5 -13 -4 -48
-1 -83 8 -33 9 -67 13 -75 9 -9 -3 -21 2 -28 11 -12 17 -39 18 -79 3 -41 -16
-51 -16 -81 -4 -18 7 -57 12 -87 11 -31 -1 -68 4 -85 11 -73 34 -105 35 -259
9 -97 -16 -161 -11 -189 14 -16 14 -22 14 -50 3 -48 -20 -95 -15 -139 14 -22
15 -38 28 -36 31 3 2 245 6 539 9 294 3 640 7 769 8 129 2 240 -1 246 -5 12
-8 92 -25 160 -33 25 -3 76 4 135 19 86 22 115 25 329 26 225 2 541 5 1430 14
223 3 485 5 583 5 l177 1 0 174 0 175 -332 -4 c-183 -3 -556 -7 -828 -10 -272
-3 -661 -8 -865 -10 -203 -3 -559 -7 -790 -9 -231 -3 -658 -8 -950 -12 -712
-9 -969 -8 -1035 5 -30 6 -76 13 -101 16 -25 3 -59 9 -76 14 -17 5 -37 5 -45
0z m-449 -403 c9 -11 3 -19 -31 -39 -24 -13 -59 -28 -78 -33 -19 -4 -37 -8
-40 -9 -18 -4 -91 -17 -95 -16 -14 1 -88 -31 -113 -49 -28 -21 -42 -22 -360
-27 -296 -5 -340 -3 -409 13 -43 10 -94 19 -113 19 -38 2 -110 30 -110 44 0
16 46 18 111 3 87 -20 121 -21 192 -6 39 8 69 9 85 3 13 -5 53 -11 89 -13 60
-3 67 -2 93 24 16 16 49 33 77 39 42 10 56 10 94 -5 26 -11 71 -18 109 -18 53
0 77 5 131 32 37 18 83 32 105 33 21 1 50 5 64 9 45 14 186 12 199 -4z"/>
<path d="M7090 3183 c-86 -28 -77 -73 14 -75 74 -1 102 38 46 67 -30 16 -36
16 -60 8z"/>
<path d="M6917 3153 c-15 -14 -6 -33 16 -33 29 0 51 15 43 29 -8 12 -49 15
-59 4z"/>
<path d="M4078 2640 c-53 -6 -72 -19 -63 -41 8 -22 40 -38 87 -44 24 -3 48
-12 54 -21 10 -12 32 -15 113 -13 87 1 107 5 148 27 27 14 62 26 78 27 44 3
45 4 45 19 0 22 -58 36 -140 32 -41 -1 -93 1 -115 6 -51 12 -147 15 -207 8z"/>
<path d="M4638 2633 c-25 -6 -22 -22 5 -32 26 -10 42 1 34 23 -7 16 -9 17 -39
9z"/>
<path d="M2968 2588 c-7 -19 2 -38 17 -38 15 0 24 19 18 38 -3 6 -11 12 -18
12 -7 0 -15 -6 -17 -12z"/>
<path d="M3036 2571 c-3 -4 2 -15 12 -24 15 -14 19 -13 35 9 18 24 18 24 -12
24 -16 0 -32 -4 -35 -9z"/>
<path d="M3216 2549 c-14 -17 -27 -34 -27 -37 -11 -58 7 -92 47 -92 13 0 39
-8 59 -17 43 -21 62 -12 87 37 14 26 15 37 5 54 -6 12 -10 27 -9 34 2 6 -6 12
-17 12 -11 0 -21 4 -23 10 -1 5 -20 11 -40 14 -21 2 -42 7 -47 10 -5 3 -21 -8
-35 -25z"/>
<path d="M5180 2529 c0 -7 -10 -9 -25 -5 -42 11 -28 -12 21 -34 26 -11 52 -20
60 -20 18 0 30 23 15 28 -7 2 -21 13 -29 23 -18 21 -42 25 -42 8z"/>
<path d="M4532 2509 c-26 -10 -23 -24 7 -32 13 -3 21 1 24 14 6 24 -2 29 -31
18z"/>
<path d="M5390 2469 c-14 -4 -37 -11 -51 -14 -32 -6 -44 -30 -23 -47 9 -7 24
-21 35 -30 22 -21 50 -24 47 -5 -2 7 6 11 19 9 15 -2 23 4 29 20 3 13 11 26
16 29 9 6 -29 50 -41 48 -3 -1 -17 -5 -31 -10z"/>
<path d="M5909 2448 c0 -7 -3 -22 -6 -33 -12 -47 -15 -117 -4 -111 6 4 9 11 6
16 -3 5 6 34 20 65 14 32 22 61 19 66 -8 13 -34 11 -35 -3z"/>
<path d="M6189 2430 c-21 -17 -22 -21 -9 -30 21 -13 36 -12 49 4 12 14 5 46
-9 46 -4 0 -18 -9 -31 -20z"/>
<path d="M5222 2398 c-8 -8 -9 -15 0 -25 14 -17 39 2 31 23 -6 17 -15 18 -31
2z"/>
<path d="M2920 2330 c-8 -5 -24 -7 -35 -4 -19 5 -20 1 -17 -35 4 -44 17 -60
54 -66 17 -3 32 3 51 23 25 26 26 29 11 50 -21 30 -47 43 -64 32z"/>
<path d="M6377 2323 c-10 -3 -16 -10 -14 -16 6 -19 41 -14 45 6 4 17 1 18 -31
10z"/>
<path d="M3326 2221 c-16 -18 -16 -20 0 -29 36 -20 70 8 42 36 -16 16 -22 15
-42 -7z"/>
<path d="M3172 2035 c-36 -19 -45 -31 -38 -52 6 -20 35 -27 73 -18 24 6 58 59
48 75 -8 14 -55 11 -83 -5z"/>
<path d="M2773 1979 c-18 -18 -5 -37 23 -31 16 3 24 10 22 21 -4 20 -29 26
-45 10z"/>
</g>
</svg>
